HIERARCHY
ROOT Hips
{
    OFFSET 0.0 0.0 0.0
    CHANNELS 6 Xposition Yposition Zposition Zrotation Xrotation Yrotation
    JOINT LeftHipJoint
    {
        OFFSET 0.1 0.0 0.0
        CHANNELS 3 Zrotation Xrotation Yrotation
        JOINT LeftUpLeg
        {
            OFFSET 7.092677593231201 0.0 0.0
            CHANNELS 3 Zrotation Xrotation Yrotation
            JOINT LeftLeg
            {
                OFFSET 0.0 0.0 -35.08433532714844
                CHANNELS 3 Zrotation Xrotation Yrotation
                JOINT LeftFoot
                {
                    OFFSET 0.0 0.0 -35.41796112060547
                    CHANNELS 3 Zrotation Xrotation Yrotation
                    End Site
                    {
                        OFFSET 0.0 -0.1 0.0
                    }
                }
            }
        }
    }
    JOINT LowerBack
    {
        OFFSET 0.0 0.0 0.1
        CHANNELS 3 Zrotation Xrotation Yrotation
        JOINT Spine
        {
            OFFSET 0.0 0.0 19.448287963867188
            CHANNELS 3 Zrotation Xrotation Yrotation
            JOINT Spine1
            {
                OFFSET 0.0 0.0 21.2198429107666
                CHANNELS 3 Zrotation Xrotation Yrotation
                JOINT LeftShoulder
                {
                    OFFSET 0.1 0.0 0.0
                    CHANNELS 3 Zrotation Xrotation Yrotation
                    JOINT LeftArm
                    {
                        OFFSET 9.190288543701172 0.0 0.0
                        CHANNELS 3 Zrotation Xrotation Yrotation
                        JOINT LeftForeArm
                        {
                            OFFSET 20.642742156982422 0.0 0.0
                            CHANNELS 3 Zrotation Xrotation Yrotation
                            JOINT LeftHand
                            {
                                OFFSET 13.981414794921875 0.0 0.0
                                CHANNELS 3 Zrotation Xrotation Yrotation
                                End Site
                                {
                                    OFFSET 0.1 0.0 0.0
                                }
                            }
                        }
                    }
                }
                JOINT Neck
                {
                    OFFSET 0.0 0.0 0.1
                    CHANNELS 3 Zrotation Xrotation Yrotation
                    JOINT Neck1
                    {
                        OFFSET 0.0 0.0 8.005989074707031
                        CHANNELS 3 Zrotation Xrotation Yrotation
                        End Site
                        {
                            OFFSET 0.0 0.0 10.178332328796387
                        }
                    }
                }
                JOINT RightShoulder
                {
                    OFFSET -0.1 0.0 0.0
                    CHANNELS 3 Zrotation Xrotation Yrotation
                    JOINT RightArm
                    {
                        OFFSET -9.190288543701172 0.0 0.0
                        CHANNELS 3 Zrotation Xrotation Yrotation
                        JOINT RightForeArm
                        {
                            OFFSET -20.642742156982422 0.0 0.0
                            CHANNELS 3 Zrotation Xrotation Yrotation
                            JOINT RightHand
                            {
                                OFFSET -13.981414794921875 0.0 0.0
                                CHANNELS 3 Zrotation Xrotation Yrotation
                                End Site
                                {
                                    OFFSET -0.1 0.0 0.0
                                }
                            }
                        }
                    }
                }
            }
        }
    }
    JOINT RightHipJoint
    {
        OFFSET -0.1 0.0 0.0
        CHANNELS 3 Zrotation Xrotation Yrotation
        JOINT RightUpLeg
        {
            OFFSET -7.092677593231201 0.0 0.0
            CHANNELS 3 Zrotation Xrotation Yrotation
            JOINT RightLeg
            {
                OFFSET 0.0 0.0 -35.08433532714844
                CHANNELS 3 Zrotation Xrotation Yrotation
                JOINT RightFoot
                {
                    OFFSET 0.0 0.0 -35.41796112060547
                    CHANNELS 3 Zrotation Xrotation Yrotation
                    End Site
                    {
                        OFFSET 0.0 -0.1 0.0
                    }
                }
            }
        }
    }
}
MOTION
Frames: 4
Frame Time: 0.03333333333333333
-0.00038408744148910046 77.75303649902344 -0.0010067025432363153 -143.14523144703185 -78.86381022522194 -132.25441433323948 0.0 0.0 0.0 0.28751986381268424 1.5360788728185681 2.1266404900247866 1.277703258146416 5.6350736668903485 20.713868972103164 -1.9862578341225716e-31 7.156248033292914e-15 3.1805546814635168e-15 0.0 0.0 0.0 0.30940167252335 1.6475391338532248 -3.9575824511439692 5.684295395380487 1.3563931959169475e-06 4.5948398282868126e-07 0.0 6.385957446375967e-15 0.0 -112.55901734223067 -42.31525230577447 -40.536242172244854 -115.91213741202041 -4.829802391823027e-06 -2.2697311231290306e-06 0.0 0.0 -3.975693351829396e-16 0.0 6.385957446375967e-15 0.0 2.605344406497879 16.718961860165138 -5.301326931794232 0.0 6.385957446375967e-15 0.0 110.33410072668427 -45.02427841822255 52.67873467183949 120.64724636893209 -6.836468851151137e-09 -1.0802187325683113e-06 0.0 0.0 8.407970237032949e-15 0.0 0.0 0.0 -1.7960834743728333 -9.452209375164415 -15.003748464374887 -0.5103885289630526 6.928056618453833 5.841197219635085 7.95138670365879e-16 -6.361109362927033e-15 -7.95138670365879e-16
-0.00033586457720957696 77.75298309326172 -0.0010281073627993464 -146.43835150367377 -78.98332791246483 -134.814028772571 6.896728590703373e-34 -4.969616689786745e-17 1.5902773407317584e-15 0.3412574565072402 1.6654984925453982 1.5852274065024565 1.6251425895514788 6.907529334557102 19.8575048310583 1.7655625192200634e-31 -6.361109362927033e-15 3.1805546814635164e-15 6.896728590703373e-34 -4.969616689786745e-17 1.5902773407317584e-15 0.3726592242484867 1.812618876075498 -3.516817392682103 5.863417816303525 -6.152046674359002e-07 -1.0706898738187045e-07 -1.5902773407317584e-15 -1.1034765745125397e-32 7.951386703658792e-16 -112.22396213878412 -39.90335954865644 -40.6018547926266 -112.07758925066979 1.7582685802541868e-08 -8.444421919999823e-07 -5.29668755766019e-31 6.3611093629270335e-15 9.54166404439055e-15 -1.5902773407317584e-15 -1.1034765745125397e-32 7.951386703658792e-16 0.9672785556817936 16.188945432221306 -5.555349977943045 -1.5902773407317584e-15 -1.1034765745125397e-32 7.951386703658792e-16 111.84777106141124 -46.504818881096334 55.25693949436782 117.84404196516222 -5.927559500405073e-07 -4.219825943706894e-06 -1.5902773407317582e-15 1.14485694605676e-31 -8.249563705045995e-15 6.896728590703373e-34 -4.969616689786745e-17 1.5902773407317584e-15 -1.9368210291163437 -9.316895723889747 -15.760786249854105 -0.5788239366091779 8.30109830609944 6.459121828924231 7.951386703658791e-16 1.2697370642405132e-14 -8.810570774623559e-32
-0.0006222479278221726 77.75318145751953 -0.001226156367920339 -151.5302474375921 -78.14336738358449 -138.31527347679983 -1.5902773407317582e-15 -6.361109362927033e-15 -8.827812596100317e-32 0.7547989750770624 3.042549441651692 -0.2154707394623448 1.687977981128777 6.8692084306253935 19.80639859514131 3.1805546814635168e-15 -8.827812596100317e-32 -3.1805546814635168e-15 -1.5902773407317582e-15 -6.361109362927033e-15 -8.827812596100317e-32 0.4577018561793048 1.8397052981396191 -3.370330444452774 5.918462069375465 -1.3214512445440856e-06 3.5047779829928004e-07 7.951386703658791e-16 6.410805529824901e-15 1.5902773407317584e-15 -113.60871754607204 -40.30139225932334 -40.10441219226665 -116.077240765242 8.739901609533433e-07 5.840502783586982e-06 -1.5902773407317582e-15 3.862168010793889e-32 -2.7829853462805768e-15 7.951386703658791e-16 6.410805529824901e-15 1.5902773407317584e-15 0.4192219684435173 16.074011171591415 -5.963997492811813 7.951386703658791e-16 6.410805529824901e-15 1.5902773407317584e-15 113.85092120561053 -50.167752096882424 55.97708035586503 119.08352597590027 -3.625446245009013e-06 9.001227133017022e-07 -5.793252016190833e-32 3.180554681463516e-15 2.0872390097104326e-15 -1.5902773407317582e-15 -6.361109362927033e-15 -8.827812596100317e-32 -1.9581653995352417 -7.809008428366877 -18.023855216677052 -0.5407000900687515 7.894447779415925 7.173033943021482 -4.4139062980501586e-32 6.361109362927033e-15 7.951386703658791e-16
-0.0008729335386306047 77.75318145751953 -0.001330927130766213 -158.01192909461446 -78.82165588232286 -143.39741988678568 -1.73797560485725e-31 -6.2617170291312985e-15 -3.1805546814635168e-15 0.821579423620977 2.88638105665328 -2.0036823887198616 1.8210242679845423 7.301762739892511 19.354959706202024 4.4139062980501586e-32 7.951386703658791e-16 -6.361109362927033e-15 -1.73797560485725e-31 -6.2617170291312985e-15 -3.1805546814635168e-15 0.4515976106008177 1.5804203765431355 -3.5287361209783663 5.384706933776104 3.388260113238119e-07 -4.661692516504893e-07 0.0 0.0 7.951386703658792e-16 -114.55328123418444 -40.41668964012397 -41.099572487704975 -119.48626256494533 -4.99396773280448e-06 -7.186561831637205e-07 -3.1805546814635168e-15 3.1805546814635168e-15 -2.3854160110976376e-15 0.0 0.0 7.951386703658792e-16 -0.5263447057321509 14.277279869804913 -6.4540872345879 0.0 0.0 7.951386703658792e-16 114.03326361719323 -53.4645308757324 56.72253833518383 119.09793686786696 -4.383024937700335e-06 -3.786922570204834e-08 -1.5902773407317584e-15 -3.1805546814635168e-15 1.987846675914698e-15 -1.73797560485725e-31 -6.2617170291312985e-15 -3.1805546814635168e-15 -2.2074978153853673 -7.670117409189808 -19.939067333148266 -0.5826904196927006 8.668600997454426 8.393220594772044 3.975693351829396e-16 0.0 0.0
